<svg width="516" height="505" viewBox="0 0 516 505" fill="none" xmlns="http://www.w3.org/2000/svg">
<rect x="138" y="374" width="22" height="22" fill="black"/>
<rect x="361" width="22" height="22" fill="black"/>
<rect x="137" y="373" width="22" height="22" fill="black"/>
<rect x="295" width="22" height="22" fill="black"/>
<rect x="273" width="22" height="22" fill="black"/>
<rect x="317" width="22" height="22" fill="black"/>
<rect x="361" y="22" width="22" height="22" fill="black"/>
<rect x="339" y="110" width="22" height="22" fill="black"/>
<rect x="339" y="66" width="22" height="22" fill="black"/>
<rect x="339" y="44" width="22" height="22" fill="black"/>
<rect x="317" y="44" width="22" height="22" fill="black"/>
<rect x="227" width="22" height="22" fill="black"/>
<rect x="272" y="44" width="22" height="22" fill="black"/>
<rect x="294" y="66" width="22" height="22" fill="black"/>
<rect x="294" y="110" width="22" height="22" fill="black"/>
<rect x="250" y="88" width="22" height="22" fill="black"/>
<rect x="272" y="110" width="22" height="22" fill="black"/>
<rect x="250" y="22" width="22" height="22" fill="black"/>
<rect x="205" y="22" width="22" height="22" fill="black"/>
<rect x="227" y="44" width="22" height="22" fill="black"/>
<rect x="250" y="66" width="22" height="22" fill="black"/>
<rect x="272" y="88" width="22" height="22" fill="black"/>
<rect x="250" y="132" width="22" height="22" fill="black"/>
<rect x="228" y="110" width="22" height="22" fill="black"/>
<rect x="205" y="132" width="22" height="22" fill="black"/>
<rect x="183" y="110" width="22" height="22" fill="black"/>
<rect x="139" y="132" width="22" height="22" fill="black"/>
<rect x="183" y="132" width="22" height="22" fill="black"/>
<rect x="161" y="110" width="22" height="22" fill="black"/>
<rect x="183" y="88" width="22" height="22" fill="black"/>
<rect x="228" y="88" width="22" height="22" fill="black"/>
<rect x="205" y="66" width="22" height="22" fill="black"/>
<rect x="161" width="22" height="22" fill="black"/>
<rect x="183" y="44" width="22" height="22" fill="black"/>
<rect x="183" y="22" width="22" height="22" fill="black"/>
<rect x="138" y="22" width="22" height="22" fill="black"/>
<rect x="160" y="66" width="22" height="22" fill="black"/>
<rect x="139" y="88" width="22" height="22" fill="black"/>
<rect x="66" y="132" width="22" height="22" fill="black"/>
<rect y="132" width="22" height="22" fill="black"/>
<rect x="22" y="132" width="22" height="22" fill="black"/>
<rect x="44" y="154" width="22" height="22" fill="black"/>
<rect y="176" width="22" height="22" fill="black"/>
<rect x="22" y="176" width="22" height="22" fill="black"/>
<rect x="22" y="198" width="22" height="22" fill="black"/>
<rect y="220" width="22" height="22" fill="black"/>
<rect x="22" y="242" width="22" height="22" fill="black"/>
<rect x="404" y="131" width="22" height="22" fill="black"/>
<rect x="426" y="152" width="22" height="22" fill="black"/>
<rect y="264" width="22" height="22" fill="black"/>
<rect y="286" width="22" height="22" fill="black"/>
<rect x="273" y="306" width="22" height="22" fill="black"/>
<rect x="22" y="308" width="22" height="22" fill="black"/>
<rect x="44" y="330" width="22" height="22" fill="black"/>
<rect x="161" y="483" width="22" height="22" fill="black"/>
<rect x="138" y="460" width="22" height="22" fill="black"/>
<rect x="139" y="416" width="22" height="22" fill="black"/>
<rect x="22" y="352" width="22" height="22" fill="black"/>
<rect x="66" y="308" width="22" height="22" fill="black"/>
<rect x="109" y="330" width="22" height="22" fill="black"/>
<rect x="361" y="88" width="22" height="22" fill="black"/>
<rect x="66" y="352" width="22" height="22" fill="black"/>
<rect x="87" y="352" width="22" height="22" fill="black"/>
<rect x="448" y="131" width="22" height="22" fill="black"/>
<rect x="160" y="352" width="22" height="22" fill="black"/>
<rect x="470" y="152" width="22" height="22" fill="black"/>
<rect x="182" y="373" width="22" height="22" fill="black"/>
<rect x="183" y="483" width="22" height="22" fill="black"/>
<rect x="183" y="438" width="22" height="22" fill="black"/>
<rect x="205" y="461" width="22" height="22" fill="black"/>
<rect x="183" y="416" width="22" height="22" fill="black"/>
<rect x="492" y="174" width="22" height="22" fill="black"/>
<rect x="405" y="373" width="22" height="22" fill="black"/>
<rect x="204" y="395" width="22" height="22" fill="black"/>
<path d="M0 98V6C0 3.23858 2.23858 1 5 1H103C105.761 1 108 3.23858 108 6V98C108 100.761 105.761 103 103 103H5C2.23858 103 0 100.761 0 98Z" fill="#6C63FF"/>
<path d="M15 91V14H94V91H15Z" fill="white"/>
<path d="M0 500V408C0 405.239 2.23858 403 5 403H103C105.761 403 108 405.239 108 408V500C108 502.761 105.761 505 103 505H5C2.23858 505 0 502.761 0 500Z" fill="#6C63FF"/>
<path d="M15 493V416H94V493H15Z" fill="white"/>
<path d="M408 98V6C408 3.23858 410.239 1 413 1H511C513.761 1 516 3.23858 516 6V98C516 100.761 513.761 103 511 103H413C410.239 103 408 100.761 408 98Z" fill="#6C63FF"/>
<path d="M423 91V14H502V91H423Z" fill="white"/>
<path d="M217.32 313.2C214.824 314.16 212.376 315.024 209.976 315.792C207.672 316.656 205.272 317.376 202.776 317.952C200.28 318.624 197.64 319.104 194.856 319.392C192.072 319.776 189 319.968 185.64 319.968C181.32 319.968 176.568 319.296 171.384 317.952C166.2 316.608 160.92 314.88 155.544 312.768C150.168 310.752 144.888 308.544 139.704 306.144C134.52 303.744 129.72 301.44 125.304 299.232C120.888 297.12 117.144 295.392 114.072 294.048C111.192 292.704 108.12 291.648 104.856 290.88C101.592 290.112 98.376 289.392 95.208 288.72C86.28 286.704 79.032 283.152 73.464 278.064C67.992 272.88 63.96 266.64 61.368 259.344C58.872 252.048 57.624 244.176 57.624 235.728C57.624 228.528 58.536 221.712 60.36 215.28C62.28 208.752 65.16 202.992 69 198C72.84 192.912 77.688 188.928 83.544 186.048C89.4 183.168 96.264 181.728 104.136 181.728C112.008 181.728 118.824 183.216 124.584 186.192C130.44 189.072 135.288 193.056 139.128 198.144C142.968 203.136 145.8 208.896 147.624 215.424C149.544 221.856 150.504 228.624 150.504 235.728C150.504 242.64 149.544 249.408 147.624 256.032C145.704 262.56 142.632 268.464 138.408 273.744C134.28 279.024 128.808 283.104 121.992 285.984C122.28 286.08 122.616 286.224 123 286.416C123.384 286.608 123.768 286.8 124.152 286.992C126.264 288.048 129.192 289.536 132.936 291.456C136.776 293.376 141.144 295.44 146.04 297.648C150.936 299.856 156.024 301.92 161.304 303.84C166.584 305.856 171.72 307.488 176.712 308.736C181.8 310.08 186.408 310.752 190.536 310.752C192.552 310.752 195.048 310.512 198.024 310.032C201 309.552 204.024 308.976 207.096 308.304C210.168 307.632 212.808 306.96 215.016 306.288L217.32 313.2ZM104.136 279.792C110.184 279.792 115.272 278.544 119.4 276.048C123.528 273.456 126.84 270.048 129.336 265.824C131.928 261.504 133.752 256.752 134.808 251.568C135.96 246.288 136.536 241.008 136.536 235.728C136.536 230.448 135.96 225.216 134.808 220.032C133.752 214.848 131.928 210.144 129.336 205.92C126.84 201.6 123.528 198.192 119.4 195.696C115.272 193.104 110.184 191.808 104.136 191.808C98.088 191.808 93 193.104 88.872 195.696C84.744 198.288 81.432 201.744 78.936 206.064C76.44 210.288 74.616 214.992 73.464 220.176C72.408 225.36 71.88 230.592 71.88 235.872C71.88 241.056 72.408 246.24 73.464 251.424C74.616 256.608 76.44 261.36 78.936 265.68C81.432 269.904 84.744 273.312 88.872 275.904C93 278.496 98.088 279.792 104.136 279.792ZM167.396 183.168H198.644C205.268 183.168 211.268 184.032 216.644 185.76C222.02 187.392 226.244 190.32 229.316 194.544C232.484 198.768 234.068 204.624 234.068 212.112C234.068 215.952 233.156 219.648 231.332 223.2C229.508 226.752 227.06 229.872 223.988 232.56C221.012 235.152 217.7 237.024 214.052 238.176L243.428 288H227.876L200.804 240.912H182.804V288H169.412V192.672L167.396 183.168ZM182.804 193.104V231.12H194.324C199.124 231.12 203.444 230.592 207.284 229.536C211.22 228.384 214.34 226.368 216.644 223.488C218.948 220.608 220.1 216.528 220.1 211.248C220.1 207.12 219.092 203.76 217.076 201.168C215.06 198.48 212.42 196.464 209.156 195.12C205.892 193.776 202.388 193.104 198.644 193.104H182.804ZM268.314 183.168V252.864C268.314 261.024 270.33 267.552 274.362 272.448C278.394 277.344 284.73 279.792 293.37 279.792C299.322 279.792 304.314 278.592 308.346 276.192C312.378 273.696 315.402 270.288 317.418 265.968C319.434 261.552 320.442 256.512 320.442 250.848V183.168H331.53V250.848C331.53 258.912 329.994 265.872 326.922 271.728C323.946 277.488 319.578 281.952 313.818 285.12C308.058 288.192 301.05 289.728 292.794 289.728C280.794 289.728 271.434 286.608 264.714 280.368C257.994 274.128 254.634 264.96 254.634 252.864V192.672L252.474 183.168H268.314ZM438.095 235.872C438.095 245.952 436.367 254.928 432.911 262.8C429.551 270.576 424.367 276.72 417.359 281.232C410.351 285.744 401.423 288 390.575 288H356.447V192.672C356.447 192.576 356.255 191.808 355.871 190.368C355.583 188.928 355.295 187.44 355.007 185.904C354.719 184.368 354.527 183.456 354.431 183.168H381.359C390.095 183.168 397.967 184.176 404.975 186.192C411.983 188.112 417.935 191.184 422.831 195.408C427.823 199.536 431.615 204.96 434.207 211.68C436.799 218.304 438.095 226.368 438.095 235.872ZM424.127 235.584C424.127 228 423.167 221.52 421.247 216.144C419.423 210.768 416.639 206.4 412.895 203.04C409.247 199.584 404.687 197.088 399.215 195.552C393.839 193.92 387.551 193.104 380.351 193.104H369.839V278.064H388.847C397.583 278.064 404.495 276.144 409.583 272.304C414.767 268.464 418.463 263.328 420.671 256.896C422.975 250.464 424.127 243.36 424.127 235.584Z" fill="#6C63FF"/>
<rect x="32" y="30" width="45" height="45" fill="#6C63FF"/>
<rect x="249" y="483" width="22" height="22" fill="black"/>
<rect x="249" y="373" width="22" height="22" fill="black"/>
<rect x="204" y="373" width="22" height="22" fill="black"/>
<rect x="339" y="328" width="22" height="22" fill="black"/>
<rect x="339" y="395" width="22" height="22" fill="black"/>
<path d="M383 328H405V350H383V328Z" fill="black"/>
<rect x="383" y="350" width="22" height="22" fill="black"/>
<rect x="361" y="373" width="22" height="22" fill="black"/>
<rect x="249" y="351" width="22" height="22" fill="black"/>
<path d="M295 372H317V394H295V372Z" fill="black"/>
<rect x="295" y="328" width="22" height="22" fill="black"/>
<rect x="317" y="350" width="22" height="22" fill="black"/>
<rect x="227" y="351" width="22" height="22" fill="black"/>
<rect x="227" y="461" width="22" height="22" fill="black"/>
<rect x="472" y="482" width="22" height="22" fill="black"/>
<rect x="470" y="174" width="22" height="22" fill="black"/>
<rect x="492" y="196" width="22" height="22" fill="black"/>
<rect x="448" y="196" width="22" height="22" fill="black"/>
<rect x="492" y="262" width="22" height="22" fill="black"/>
<rect x="470" y="240" width="22" height="22" fill="black"/>
<rect x="227" y="417" width="22" height="22" fill="black"/>
<rect x="471" y="328" width="22" height="22" fill="black"/>
<rect x="427" y="482" width="22" height="22" fill="black"/>
<rect x="492" y="240" width="22" height="22" fill="black"/>
<rect x="447" y="262" width="22" height="22" fill="black"/>
<rect x="492" y="284" width="22" height="22" fill="black"/>
<rect x="447" y="306" width="22" height="22" fill="black"/>
<rect x="492" y="306" width="22" height="22" fill="black"/>
<rect x="449" y="349" width="22" height="22" fill="black"/>
<rect x="494" y="482" width="22" height="22" fill="black"/>
<path d="M449 460H471V482H449V460Z" fill="black"/>
<rect x="472" y="438" width="22" height="22" fill="black"/>
<rect x="493" y="372" width="22" height="22" fill="black"/>
<rect x="493" y="394" width="22" height="22" fill="black"/>
<rect x="472" y="416" width="22" height="22" fill="black"/>
<rect x="471" y="372" width="22" height="22" fill="black"/>
<rect x="449" y="394" width="22" height="22" fill="black"/>
<path d="M427 417H449V439H427V417Z" fill="black"/>
<rect x="405" y="461" width="22" height="22" fill="black"/>
<rect x="383" y="417" width="22" height="22" fill="black"/>
<rect x="383" y="482" width="22" height="22" fill="black"/>
<rect x="383" y="461" width="22" height="22" fill="black"/>
<rect x="361" y="439" width="22" height="22" fill="black"/>
<rect x="339" y="417" width="22" height="22" fill="black"/>
<rect x="339" y="439" width="22" height="22" fill="black"/>
<rect x="339" y="483" width="22" height="22" fill="black"/>
<rect x="317" y="417" width="22" height="22" fill="black"/>
<rect x="317" y="461" width="22" height="22" fill="black"/>
<rect x="271" y="417" width="22" height="22" fill="black"/>
<rect x="249" y="439" width="22" height="22" fill="black"/>
<rect x="271" y="483" width="22" height="22" fill="black"/>
<rect x="271" y="461" width="22" height="22" fill="black"/>
<rect x="32" y="432" width="45" height="45" fill="#6C63FF"/>
<rect x="440" y="30" width="45" height="45" fill="#6C63FF"/>
<rect x="470" y="218" width="22" height="22" fill="black"/>
</svg>
